<svg version="1" xmlns="http://www.w3.org/2000/svg" width="682.667" height="682.667" viewBox="0 0 512.000000 512.000000"><path d="M407 10.3c-4.7 2.4-5 4.2-5 34.4v28.1l-45.7.5c-50.6.4-54 .8-74 7.8-19.8 7-33.5 15.9-49.6 32.2-22.6 23-39.9 51.7-62.2 103.2-26.3 60.8-35.5 77.4-51.5 93.6-6.5 6.6-10.2 9.5-16 12.3-12.6 6.1-16.8 6.6-59.3 6.6H5.8l-2.9 2.9-2.9 2.9V365c0 32.6.4 35.3 5.4 36.6 1.3.3 21.9.4 45.7.1 36.6-.3 44.6-.7 50.8-2.1 19.1-4.5 38.6-13 51.1-22.5 8.3-6.2 26.7-25.2 34.3-35.3 15.1-20.2 27.6-43.9 49-93.3 22.2-51.2 32.1-68.7 47.7-84.2 7.8-7.7 16.5-13 26.5-15.9 5.2-1.5 11.8-1.8 48.7-2.1l42.7-.5.3 29.7.3 29.7 2.8 2.4c1.9 1.6 4 2.4 6.5 2.4 3.5 0 5.7-2.1 51.9-48.3 47.5-47.4 48.3-48.3 48.3-52.2 0-3.9-.8-4.8-46.7-50.8-25.8-25.8-48-47.5-49.5-48.3-3.3-1.7-5.5-1.8-8.8-.1z"/><path d="M2.9 75.9L0 78.8V109c0 31.5.4 34.8 4.5 36.4.9.3 17.7.6 37.3.6 42.5.1 47.1.7 61.2 7.6 7.2 3.6 11.1 6.3 16.1 11.3 7.9 8 18.4 23.6 26.3 38.9l5.8 11.4 7.7-17.4c11-24.5 21.8-45.5 30.1-58.4 1.2-2 .9-2.7-3.6-8.5-20.1-26.3-47.5-45.6-75.3-53-15.2-4-26.5-4.9-66.4-4.9H5.8l-2.9 2.9zM246.6 270.3c-6.3 15-20.7 44.4-27.4 55.9-3.4 6-6.2 11.3-6.2 12 0 3.5 24.8 30.5 35.5 38.5 9.1 6.8 30.4 17.1 41 19.8 20.6 5.2 30 5.9 72.7 5.8l39.7-.1.3 29.5.3 29.5 2.8 2.4c1.9 1.6 4 2.4 6.5 2.4 3.5 0 5.7-2.1 51.9-48.3 47.5-47.4 48.3-48.3 48.3-52.2 0-3.9-.8-4.8-46.7-50.8-25.8-25.8-48.1-47.5-49.7-48.4-3.5-1.8-8.6-1-11.2 1.8-1.8 1.9-1.9 4.3-2.2 31.5l-.3 29.4h-40.2c-45.6 0-48.6-.4-62.6-7.1-6.6-3.2-10.3-5.9-15.7-11.3-8.1-8.1-18.4-23.2-26.4-38.8-3-5.9-5.7-10.8-6-10.8-.3 0-2.3 4.2-4.4 9.3z"/></svg>